<svg width="121" height="46" viewBox="0 0 121 46" fill="none" xmlns="http://www.w3.org/2000/svg">
<path d="M52.8374 2.49722C53.0004 3.78611 53.0954 5.28982 53.1226 7.00834C53.1498 8.7 53.1226 10.4185 53.0411 12.1639C52.9868 13.8824 52.8646 15.5204 52.6744 17.0778C52.4843 18.6083 52.2534 19.8435 51.9818 20.7833C51.7917 21.3472 51.5608 21.938 51.2892 22.5556C51.0447 23.1463 50.7731 23.6833 50.4743 24.1667C50.0397 24.8917 49.5101 25.5361 48.8853 26.1C48.2606 26.637 47.568 27.1069 46.8075 27.5097C46.0741 27.8856 45.2864 28.181 44.4444 28.3958C43.6295 28.6106 42.8147 28.7315 41.9998 28.7583C40.5602 28.812 39.1885 28.6106 37.8848 28.1542C36.6082 27.6708 35.4266 26.919 34.3401 25.8986C33.5253 25.1199 32.8734 24.2875 32.3845 23.4014C31.8956 22.5153 31.5153 21.5889 31.2437 20.6222C30.9721 19.6287 30.7955 18.6083 30.714 17.5611C30.6597 16.5139 30.6325 15.4398 30.6325 14.3389C30.6325 13.8287 30.619 13.1977 30.5918 12.4458C30.5918 11.6671 30.5918 10.875 30.5918 10.0694C30.5918 9.23704 30.5918 8.43148 30.5918 7.65278C30.5918 6.87408 30.6054 6.21621 30.6325 5.67917C30.6325 5.33009 30.6325 4.95417 30.6325 4.55139C30.6325 4.12176 30.6461 3.70556 30.6733 3.30278C30.7276 2.87315 30.8091 2.47037 30.9177 2.09444C31.0264 1.69167 31.1894 1.32917 31.4067 1.00694C31.6511 0.657871 31.9906 0.402778 32.4252 0.241666C32.8598 0.0805553 33.308 0 33.7697 0C34.2587 0 34.7204 0.0939819 35.155 0.281946C35.5896 0.469908 35.9427 0.738426 36.2143 1.0875C36.3501 1.30232 36.4452 1.51713 36.4995 1.73194C36.5538 1.94676 36.5946 2.18843 36.6217 2.45694C36.6761 3.34306 36.7032 4.35 36.7032 5.47778C36.7304 6.60556 36.7304 7.70648 36.7032 8.78056C36.7032 9.82778 36.6896 10.7944 36.6625 11.6806C36.6353 12.5667 36.6217 13.2245 36.6217 13.6542C36.6217 15.2653 36.7032 16.7287 36.8662 18.0444C37.0292 19.3333 37.4094 20.4074 38.007 21.2667C38.5502 22.0454 39.1885 22.5421 39.9219 22.7569C40.6553 22.9718 41.3887 23.0389 42.122 22.9583C42.8011 22.8778 43.4801 22.6361 44.1592 22.2333C44.8654 21.8037 45.4222 21.1861 45.8296 20.3806C45.9926 20.0852 46.1284 19.7495 46.2371 19.3736C46.3457 18.9977 46.4272 18.6486 46.4815 18.3264C46.5902 17.306 46.6852 16.1245 46.7667 14.7819C46.8482 13.4125 46.9161 12.0162 46.9704 10.5931C47.0247 9.16991 47.0519 7.77361 47.0519 6.40417C47.0519 5.03472 47.0383 3.79954 47.0112 2.69861C47.0655 2.21528 47.2149 1.77222 47.4593 1.36944C47.6766 1.02037 47.989 0.711575 48.3964 0.443055C48.8039 0.174536 49.3607 0.0402772 50.0669 0.0402772C50.6373 0.0671288 51.099 0.214814 51.4521 0.483334C51.8052 0.725001 52.0904 0.993519 52.3077 1.28889C52.5522 1.63796 52.7287 2.04074 52.8374 2.49722Z" fill="white"/>
<path d="M60.5699 5.11528L60.4885 11.4389H62.1182C63.2318 11.412 64.2232 11.3986 65.0924 11.3986C65.9616 11.3986 66.9258 11.412 67.9851 11.4389H68.1889C68.5148 11.4389 68.8272 11.4523 69.1259 11.4792C69.4519 11.4792 69.7642 11.4792 70.063 11.4792C70.389 11.506 70.7013 11.5597 71.0001 11.6403C71.2989 11.694 71.5977 11.7611 71.8965 11.8417C72.3582 12.0028 72.7385 12.2444 73.0373 12.5667C73.3089 12.9157 73.4447 13.3051 73.4447 13.7347C73.4447 13.869 73.4447 14.0301 73.4447 14.2181C73.4447 14.3792 73.4175 14.5269 73.3632 14.6611C73.3089 14.9565 73.1323 15.225 72.8335 15.4667C72.6977 15.6546 72.4397 15.7889 72.0594 15.8694C71.7063 15.9769 71.3532 16.044 71.0001 16.0708C70.6198 16.1514 70.2396 16.1917 69.8593 16.1917H67.9444L60.407 16.2319L60.3255 24.1264L68.4333 24.2069H70.3482C70.5655 24.2069 70.7692 24.2069 70.9594 24.2069C71.1495 24.2069 71.3261 24.2204 71.489 24.2472C71.7063 24.3009 71.8965 24.3412 72.0594 24.3681C72.2496 24.3681 72.4261 24.3949 72.5891 24.4486C72.915 24.556 73.1866 24.7037 73.4039 24.8917C73.6756 25.1602 73.8521 25.4421 73.9336 25.7375C73.9608 25.8718 73.9743 26.0194 73.9743 26.1806C74.0015 26.3148 74.0015 26.4625 73.9743 26.6236C73.9743 27.0532 73.8385 27.4426 73.5669 27.7917C73.241 28.1676 72.8607 28.4093 72.4261 28.5167C71.8557 28.7583 71.231 28.8792 70.5519 28.8792C70.2532 28.906 69.9408 28.9194 69.6149 28.9194C69.2889 28.9194 68.9766 28.9329 68.6778 28.9597H68.4333C66.3147 29.0134 64.1146 29.0134 61.833 28.9597C61.2897 28.9597 60.8551 28.9463 60.5292 28.9194C60.2033 28.9194 59.9045 28.9194 59.6329 28.9194C59.3884 28.9194 59.1304 28.9194 58.8587 28.9194C58.5871 28.9194 58.234 28.9194 57.7994 28.9194C57.1747 28.9731 56.6586 28.8657 56.2512 28.5972C55.9524 28.4093 55.7215 28.1542 55.5586 27.8319C55.4771 27.7514 55.4363 27.6708 55.4363 27.5903C55.4092 27.5366 55.382 27.4963 55.3549 27.4694C55.3277 27.4426 55.3005 27.4023 55.2734 27.3486C55.219 27.2144 55.1783 27.0801 55.1511 26.9458C55.124 26.7847 55.1104 26.637 55.1104 26.5028C55.0832 26.3685 55.0561 26.2343 55.0289 26.1C55.0289 25.9657 55.0153 25.8315 54.9882 25.6972V25.0528C54.9882 24.9454 54.9882 24.838 54.9882 24.7306C55.0153 24.6232 55.0289 24.5157 55.0289 24.4083V21.2667L55.1104 15.4667V10.1097C55.1104 9.14306 55.1104 8.2838 55.1104 7.53195C55.1376 6.78009 55.1647 5.96111 55.1919 5.075V4.87361C55.219 4.57824 55.2326 4.30972 55.2326 4.06806C55.2598 3.79954 55.2734 3.53102 55.2734 3.2625C55.3005 2.72546 55.4499 2.20185 55.7215 1.69167C55.8302 1.47685 55.9388 1.28889 56.0475 1.12778C56.1833 0.966667 56.3598 0.832408 56.5771 0.725C56.9846 0.483334 57.4056 0.3625 57.8402 0.3625C58.0575 0.3625 58.2204 0.375926 58.3291 0.402777V0.3625C58.818 0.3625 59.2118 0.3625 59.5106 0.3625C59.8094 0.3625 60.0946 0.3625 60.3662 0.3625C60.665 0.3625 60.9774 0.3625 61.3033 0.3625C61.6293 0.335649 62.0774 0.322223 62.6478 0.322223C63.7343 0.295371 64.7665 0.281946 65.7443 0.281946C66.7221 0.281946 67.7271 0.295371 68.7593 0.322223H68.9222C69.221 0.349074 69.5334 0.3625 69.8593 0.3625C70.1853 0.3625 70.4976 0.375926 70.7964 0.402777C71.0952 0.402777 71.394 0.443055 71.6927 0.523612C71.9915 0.577315 72.2903 0.65787 72.5891 0.765278C73.0508 0.899537 73.4311 1.12778 73.7299 1.45C73.9743 1.82593 74.0966 2.20185 74.0966 2.57778C74.0966 2.73889 74.0966 2.9 74.0966 3.06111C74.0966 3.19537 74.0694 3.32963 74.0151 3.46389C73.9879 3.73241 73.8249 4.01435 73.5262 4.30972C73.4175 4.36343 73.2953 4.43056 73.1595 4.51111C73.0508 4.59167 72.915 4.6588 72.7521 4.7125C72.5891 4.7662 72.4125 4.80648 72.2224 4.83333C72.0594 4.83333 71.8965 4.84676 71.7335 4.87361C71.5162 4.92732 71.3125 4.95417 71.1223 4.95417C70.9594 4.95417 70.7692 4.95417 70.5519 4.95417H68.7185L60.5699 4.99445V5.11528Z" fill="white"/>
<path d="M97.0278 17.0778C97.1636 17.4537 97.2587 17.8833 97.313 18.3667C97.3945 18.8232 97.4352 19.2931 97.4352 19.7764C97.4352 20.2597 97.3945 20.7431 97.313 21.2264C97.2587 21.6829 97.1772 22.0857 97.0685 22.4347C96.6339 23.9384 95.7648 25.2005 94.461 26.2208C93.1572 27.2144 91.6633 27.9394 89.9793 28.3958C88.3224 28.8523 86.5976 29.0134 84.8049 28.8792C83.0394 28.7449 81.464 28.3019 80.0788 27.55C79.2096 27.0667 78.4626 26.4759 77.8379 25.7778C77.2132 25.0796 76.6835 24.3009 76.2489 23.4417C76.086 23.1463 75.9773 22.8107 75.923 22.4347C75.8958 22.0319 75.9366 21.656 76.0452 21.3069C76.1539 20.931 76.3304 20.6088 76.5749 20.3403C76.8193 20.0449 77.1589 19.8435 77.5934 19.7361C77.8651 19.6824 78.1638 19.6556 78.4898 19.6556C78.8429 19.6556 79.1824 19.7093 79.5084 19.8167C79.8343 19.8972 80.1331 20.0449 80.4047 20.2597C80.6763 20.4477 80.8936 20.7162 81.0566 21.0653C81.3554 21.6292 81.7764 22.1528 82.3196 22.6361C82.89 23.0926 83.4876 23.4685 84.1123 23.7639C85.0086 24.0593 85.905 24.1801 86.8013 24.1264C87.7248 24.0727 88.5533 23.8713 89.2866 23.5222C90.0472 23.1732 90.6583 22.7032 91.1201 22.1125C91.5818 21.4949 91.8127 20.7968 91.8127 20.0181C91.8127 19.3736 91.7176 18.85 91.5275 18.4472C91.3374 18.0176 91.0658 17.6685 90.7126 17.4C90.3867 17.1046 89.9793 16.863 89.4904 16.675C89.0286 16.487 88.5125 16.3259 87.9421 16.1917C87.2902 16.0574 86.6248 15.9634 85.9457 15.9097C85.2938 15.856 84.6284 15.7889 83.9493 15.7083C83.2703 15.6278 82.6048 15.5204 81.9529 15.3861C81.301 15.2519 80.6627 15.0505 80.038 14.7819C78.7886 14.2718 77.8379 13.4931 77.186 12.4458C76.5341 11.3986 76.1403 10.2708 76.0045 9.0625C75.8958 7.85417 76.0452 6.65926 76.4526 5.47778C76.8601 4.26944 77.512 3.23565 78.4083 2.37639C79.2775 1.59768 80.3096 1.04722 81.5048 0.725C82.727 0.375926 84.0716 0.174537 85.5383 0.120834C86.3532 0.0939811 87.168 0.120833 87.9829 0.201389C89.6519 0.201389 89.6519 0.268525 90.5007 0.201389C102.498 0.201389 103.574 0.124173 104.616 0.3222C115.965 0.332714 100.302 0.670757 100.791 1.07353C101.144 1.34205 99.2154 0.711573 99.5685 1.16806C99.9216 1.59768 101.253 4.48426 101.443 4.99445C101.633 5.47778 98.9573 1.07407 98.8759 1.53056C98.8215 1.98704 100.354 4.1419 99.8376 4.46413C99.403 4.73265 98.1425 4.49098 97.7351 4.46413C97.3548 4.41042 97.0614 4.65209 96.7083 4.46413C97.9122 3.73913 102.562 5.00452 101.443 4.99445C100.324 4.98437 95.8174 4.87361 94.3204 4.87361C93.0472 4.87361 92.8155 4.83333 88.594 4.87361C87.3594 4.88539 86.3667 4.68565 85.4161 4.79306C84.8185 4.87361 84.2617 5.00787 83.7456 5.19583C83.2295 5.3838 82.7814 5.63889 82.4011 5.96111C82.048 6.28333 81.7628 6.68611 81.5455 7.16945C81.3554 7.62593 81.2875 8.14954 81.3418 8.74028C81.3689 9.16991 81.4912 9.53241 81.7085 9.82778C81.9529 10.1232 82.2381 10.3648 82.5641 10.5528C82.9172 10.7407 83.2974 10.8884 83.7049 10.9958C84.1123 11.1032 84.5197 11.1838 84.9272 11.2375C86.1494 11.3986 87.3717 11.5194 88.594 11.6C89.8163 11.6806 91.0114 11.9491 92.1794 12.4056C93.3745 12.862 94.3931 13.4796 95.2351 14.2583C96.0771 15.037 96.6747 15.9769 97.0278 17.0778Z" fill="white"/>
<path d="M120.144 1.53056C120.442 1.87963 120.592 2.24213 120.592 2.61806C120.592 2.77917 120.578 2.9537 120.551 3.14167C120.551 3.30278 120.537 3.45046 120.51 3.58472C120.429 3.88009 120.252 4.16204 119.981 4.43056C119.763 4.59167 119.465 4.7125 119.084 4.79306C118.894 4.84676 118.704 4.88704 118.514 4.91389C118.324 4.94074 118.12 4.98102 117.903 5.03472C117.713 5.06157 117.522 5.075 117.332 5.075C117.142 5.075 116.939 5.075 116.721 5.075H114.643C114.154 5.10185 113.666 5.11528 113.177 5.11528C112.715 5.11528 112.253 5.11528 111.791 5.11528C111.818 5.94769 111.832 6.84722 111.832 7.81389C111.832 8.75371 111.818 9.85463 111.791 11.1167C111.791 12.3787 111.778 13.8421 111.751 15.5069C111.751 17.1718 111.751 19.1051 111.751 21.3069V24.3681C111.751 24.6366 111.764 24.838 111.791 24.9722C111.791 25.0796 111.791 25.187 111.791 25.2944C111.791 25.375 111.778 25.4824 111.751 25.6167C111.696 25.8583 111.656 26.1403 111.628 26.4625C111.628 26.5968 111.615 26.731 111.588 26.8653C111.56 26.9727 111.52 27.0935 111.465 27.2278C111.357 27.3352 111.302 27.4157 111.302 27.4694L111.18 27.7111C111.044 27.9796 110.786 28.2347 110.406 28.4764C109.809 28.7718 109.143 28.8389 108.41 28.6778C107.948 28.6241 107.595 28.5032 107.35 28.3153C107.106 28.0736 106.929 27.8319 106.821 27.5903C106.658 27.2949 106.563 27.013 106.536 26.7444C106.454 26.5028 106.413 26.2477 106.413 25.9792V5.27639C106.25 5.27639 105.911 5.27639 105.395 5.27639C104.879 5.27639 104.322 5.27639 103.724 5.27639C103.154 5.24954 102.611 5.22269 102.095 5.19583C101.578 5.16898 101.225 5.14213 101.035 5.11528C100.872 5.08843 100.614 5.04815 100.261 4.99445C99.9352 4.94074 99.6636 4.88704 99.4463 4.83333C98.8759 4.67222 98.4277 4.41713 98.1017 4.06806C97.803 3.71898 97.6536 3.32963 97.6536 2.9C97.6536 2.73889 97.6536 2.57778 97.6536 2.41667C97.6536 2.25556 97.6807 2.10787 97.7351 1.97361C97.8165 1.65139 98.0338 1.38287 98.3869 1.16806C98.4956 1.0875 98.6586 0.993519 98.8759 0.886112C99.1203 0.751853 99.3512 0.657871 99.5685 0.604166C99.8944 0.496759 100.302 0.416203 100.791 0.3625C101.008 0.335649 101.225 0.322223 101.443 0.322223C101.66 0.322223 101.891 0.322223 102.135 0.322223C103.086 0.322223 103.982 0.322223 104.824 0.322223C105.693 0.322223 106.603 0.308797 107.554 0.281946C109.129 0.255093 110.691 0.255093 112.24 0.281946C113.815 0.281946 115.377 0.308797 116.925 0.3625C117.278 0.389352 117.618 0.42963 117.944 0.483334C118.269 0.537037 118.595 0.631018 118.921 0.765278C119.166 0.845834 119.397 0.953241 119.614 1.0875C119.831 1.19491 120.008 1.34259 120.144 1.53056Z" fill="white"/>
<circle cx="14.505" cy="14.778" r="12.005" stroke="white" stroke-width="5"/>
<path d="M24.2285 24.2288L36.3083 36.1775C36.704 36.5688 36.704 37.208 36.3083 37.5994L30.8485 43" stroke="white" stroke-width="5" stroke-linecap="round"/>
</svg>
